<svg width="16" height="16" viewBox="0 0 16 16" fill="none" xmlns="http://www.w3.org/2000/svg">
<path d="M7.99999 6.87143C8.89727 6.87143 9.65055 7.47943 9.86335 8.30151C10.1309 9.33223 10.0947 10.4618 11.2707 11.0484C12.3145 11.4036 12.7094 11.85 12.7094 13.0468C12.7094 14.002 11.8921 15.0174 10.8384 15.1441C9.66015 15.321 8.74303 15.0897 7.99967 14.666C7.25631 15.0897 6.33887 15.3214 5.16223 15.1441C4.10783 15.0174 3.29087 13.9985 3.29087 13.0468C3.29087 11.8756 3.71231 11.3799 4.75423 11.0404C6.03647 10.3854 5.86431 9.23719 6.15039 8.25095C6.26799 7.85189 6.51183 7.50173 6.84532 7.253C7.17881 7.00427 7.58396 6.87038 7.99999 6.87143V6.87143ZM13.8742 6.15975C13.5565 5.88359 12.2595 6.96167 11.8515 7.49479C11.6035 7.77927 11.4493 8.17031 11.4493 8.60167C11.4493 9.46919 12.0701 10.1726 12.8339 10.1726C13.415 10.1726 13.9123 9.76839 14.1181 9.19367C14.5177 8.16007 14.5398 6.73767 13.8742 6.15975V6.15975ZM2.12511 6.15975C1.46047 6.73767 1.48191 8.16007 1.88223 9.19367C2.08799 9.76839 2.58495 10.1726 3.16575 10.1726C3.93023 10.1726 4.55039 9.46919 4.55039 8.60167C4.55039 8.17031 4.39647 7.77927 4.14847 7.49479C3.74015 6.96167 2.44351 5.88359 2.12511 6.15975V6.15975ZM9.70719 0.493513C12.9353 1.04135 12.7088 6.47815 10.1241 6.04007C9.37855 5.91335 8.82495 5.23431 8.74079 4.42311C8.65535 3.59815 8.46303 0.282953 9.70719 0.493513V0.493513ZM6.29279 0.493513C7.53727 0.282633 7.34463 3.59783 7.25919 4.42279C7.17503 5.23431 6.62207 5.91303 5.87647 6.03975C3.29119 6.47847 3.06495 1.04135 6.29279 0.493513V0.493513Z" fill="#41B883"/>
</svg>
