<svg width="67" height="67" viewBox="0 0 67 67" fill="none" xmlns="http://www.w3.org/2000/svg">
<path d="M51.467 21.1114L43.7767 10.0025C43.2067 9.18089 42.4491 8.50692 41.5667 8.03646C40.6843 7.56601 39.7024 7.31261 38.7026 7.29727L24.1082 7.08789H24.0781C16.5434 7.08789 10.7623 8.3482 7.03893 14.499C3.57246 20.2243 2.09375 29.9772 2.09375 47.1093V49.203H6.87758L3.79806 64.9061H8.06539L11.1449 49.203H12.5625C15.9821 49.2335 19.2764 47.9178 21.7342 45.54C23.956 43.4141 25.5587 40.5056 26.3691 37.1291L26.3764 37.0988L29.9676 19.8905H25.6898L22.2902 36.1809C21.2548 40.4574 18.1588 45.0155 12.5625 45.0155H6.2891C6.40282 30.1936 7.75237 21.406 10.6212 16.6669C13.029 12.6888 16.5485 11.2767 24.0636 11.2747L38.6424 11.4841C38.9757 11.4892 39.303 11.5736 39.5971 11.7305C39.8913 11.8873 40.1438 12.112 40.3337 12.3859L49.033 24.9509L60.7188 26.8986V29.1178L58.77 39.5108C58.1949 42.5783 57.2117 44.1234 53.1799 44.6078L36.6516 47.4355L36.5423 64.9061H40.7298L40.8171 50.9705L53.733 48.759C56.659 48.3993 58.8178 47.4563 60.3317 45.8771C61.6259 44.5269 62.4135 42.8019 62.8859 40.2826L64.9062 29.507V23.3512L51.467 21.1114Z" fill="#41B883"/>
</svg>
